<svg xmlns="http://www.w3.org/2000/svg" width="353.416" height="210.483" viewBox="0 0 353.416 210.483">
  <g id="Group_45" data-name="Group 45" transform="translate(-717.487 -520.759)">
    <g id="Group_44" data-name="Group 44" transform="translate(-18.11 94.434)">
      <g id="Polygon_1" data-name="Polygon 1" transform="matrix(0.995, 0.105, -0.105, 0.995, 875.912, 438.396)" fill="#fff">
        <path d="M 199.9709167480469 61.99999237060547 L 14.30471897125244 61.99999237060547 C 13.67760753631592 61.99999237060547 13.43485736846924 61.60263061523438 13.3416633605957 61.2692985534668 C 13.24844074249268 60.93596267700195 13.24985790252686 60.4703254699707 13.78599643707275 60.14504623413086 L 106.6190795898438 3.823631048202515 C 106.7754974365234 3.728770017623901 106.9548568725586 3.678603410720825 107.1378021240234 3.678603410720825 C 107.3207168579102 3.678603410720825 107.5000762939453 3.728742122650146 107.6564712524414 3.823631048202515 L 200.4896087646484 60.14501953125 C 201.0257415771484 60.4703254699707 201.0271911621094 60.93596267700195 200.9339752197266 61.2692985534668 C 200.8407440185547 61.60263061523438 200.5979919433594 61.99999237060547 199.9709167480469 61.99999237060547 Z" stroke="none"/>
        <path d="M 107.1378021240234 7.017879486083984 L 21.45700073242188 59.00000762939453 L 192.8185424804688 59.00000762939453 L 107.1378021240234 7.017879486083984 M 107.1377944946289 0.6785888671875 C 107.8564376831055 0.6785888671875 108.575065612793 0.871978759765625 109.2125854492188 1.258758544921875 L 202.0456848144531 57.58016586303711 C 205.5053405761719 59.67913436889648 204.0174560546875 65.00000762939453 199.9709014892578 65.00000762939453 L 14.30470275878906 65.00000762939453 C 10.25811767578125 65.00000762939453 8.770263671875 59.67913436889648 12.22988891601562 57.58016586303711 L 105.06298828125 1.258758544921875 C 105.7005233764648 0.871978759765625 106.4191589355469 0.6785888671875 107.1377944946289 0.6785888671875 Z" stroke="none" fill="#486974"/>
      </g>
      <g id="Rectangle_143" data-name="Rectangle 143" transform="matrix(0.995, 0.105, -0.105, 0.995, 899.477, 426.325)" fill="#fff" stroke="#707070" stroke-width="2">
        <rect width="173" height="106" stroke="none"/>
        <rect x="1" y="1" width="171" height="104" fill="none"/>
      </g>
      <g id="Rectangle_142" data-name="Rectangle 142" transform="matrix(0.995, 0.105, -0.105, 0.995, 879.855, 496.192)" fill="#fff" stroke="#486974" stroke-width="6">
        <rect width="194" height="121" rx="4" stroke="none"/>
        <rect x="3" y="3" width="188" height="115" rx="1" fill="none"/>
      </g>
      <g id="Group_43" data-name="Group 43" transform="matrix(0.995, 0.105, -0.105, 0.995, 305.425, -67.773)">
        <g id="Group_39" data-name="Group 39" transform="translate(-237 6)">
          <line id="Line_15" data-name="Line 15" x1="0.625" y2="19.509" transform="translate(922.875 451.5)" fill="none" stroke="#707070" stroke-linecap="round" stroke-width="3"/>
          <g id="Group_38" data-name="Group 38" transform="translate(50.306 90.195) rotate(-9)">
            <line id="Line_16" data-name="Line 16" y2="21.509" transform="translate(813.868 499.427) rotate(70)" fill="none" stroke="#707070" stroke-linecap="round" stroke-width="3"/>
            <line id="Line_17" data-name="Line 17" y2="21.509" transform="translate(812 510.018) rotate(130)" fill="none" stroke="#707070" stroke-linecap="round" stroke-width="3"/>
          </g>
        </g>
        <g id="Group_40" data-name="Group 40" transform="translate(-150 6)">
          <line id="Line_15-2" data-name="Line 15" x1="0.625" y2="19.509" transform="translate(922.875 451.5)" fill="none" stroke="#707070" stroke-linecap="round" stroke-width="3"/>
          <g id="Group_38-2" data-name="Group 38" transform="translate(50.306 90.195) rotate(-9)">
            <line id="Line_16-2" data-name="Line 16" y2="21.509" transform="translate(813.868 499.427) rotate(70)" fill="none" stroke="#707070" stroke-linecap="round" stroke-width="3"/>
            <line id="Line_17-2" data-name="Line 17" y2="21.509" transform="translate(812 510.018) rotate(130)" fill="none" stroke="#707070" stroke-linecap="round" stroke-width="3"/>
          </g>
        </g>
        <g id="Group_41" data-name="Group 41" transform="translate(-179 6)">
          <line id="Line_15-3" data-name="Line 15" x1="0.625" y2="19.509" transform="translate(922.875 451.5)" fill="none" stroke="#707070" stroke-linecap="round" stroke-width="3"/>
          <g id="Group_38-3" data-name="Group 38" transform="translate(50.306 90.195) rotate(-9)">
            <line id="Line_16-3" data-name="Line 16" y2="21.509" transform="translate(813.868 499.427) rotate(70)" fill="none" stroke="#707070" stroke-linecap="round" stroke-width="3"/>
            <line id="Line_17-3" data-name="Line 17" y2="21.509" transform="translate(812 510.018) rotate(130)" fill="none" stroke="#707070" stroke-linecap="round" stroke-width="3"/>
          </g>
        </g>
        <g id="Group_42" data-name="Group 42" transform="translate(-208 6)">
          <line id="Line_15-4" data-name="Line 15" x1="0.625" y2="19.509" transform="translate(922.875 451.5)" fill="none" stroke="#707070" stroke-linecap="round" stroke-width="3"/>
          <g id="Group_38-4" data-name="Group 38" transform="translate(50.306 90.195) rotate(-9)">
            <line id="Line_16-4" data-name="Line 16" y2="21.509" transform="translate(813.868 499.427) rotate(70)" fill="none" stroke="#707070" stroke-linecap="round" stroke-width="3"/>
            <line id="Line_17-4" data-name="Line 17" y2="21.509" transform="translate(812 510.018) rotate(130)" fill="none" stroke="#707070" stroke-linecap="round" stroke-width="3"/>
          </g>
        </g>
      </g>
      <g id="at-sign" transform="matrix(0.995, 0.105, -0.105, 0.995, 950.421, 547.63)">
        <circle id="Ellipse_15" data-name="Ellipse 15" cx="8" cy="8" r="8" transform="translate(14 14)" fill="none" stroke="#486974" stroke-linecap="round" stroke-linejoin="round" stroke-width="4"/>
        <path id="Path_40" data-name="Path 40" d="M30,14V24a6,6,0,0,0,12,0V22a20,20,0,1,0-7.84,15.879" transform="translate(0)" fill="none" stroke="#486974" stroke-linecap="round" stroke-linejoin="round" stroke-width="4"/>
      </g>
    </g>
    <line id="Line_18" data-name="Line 18" x1="114" y2="1" transform="translate(737.5 611.5)" fill="none" stroke="rgba(112,112,112,0.26)" stroke-linecap="round" stroke-width="3"/>
    <path id="Path_51" data-name="Path 51" d="M114,0,0,1" transform="translate(719 649.5)" fill="none" stroke="rgba(112,112,112,0.26)" stroke-linecap="round" stroke-width="3"/>
    <line id="Line_20" data-name="Line 20" x1="114" y2="1" transform="translate(719 686.5)" fill="none" stroke="rgba(112,112,112,0.26)" stroke-linecap="round" stroke-width="3"/>
  </g>
</svg>
